<svg width="20" height="21" viewBox="0 0 20 21" fill="none" xmlns="http://www.w3.org/2000/svg">
<path d="M14.375 1.75H5.625C4.58947 1.75 3.75 2.58947 3.75 3.625V17.375C3.75 18.4105 4.58947 19.25 5.625 19.25H14.375C15.4105 19.25 16.25 18.4105 16.25 17.375V3.625C16.25 2.58947 15.4105 1.75 14.375 1.75Z" stroke="#157A8C" stroke-width="1.25" stroke-linejoin="round"/>
<path d="M8.125 3.625H11.875" stroke="#157A8C" stroke-width="1.25" stroke-linecap="round" stroke-linejoin="round"/>
<path d="M13.0265 11.6136C12.8791 11.4566 12.7005 11.332 12.5023 11.2479C12.304 11.1637 12.0903 11.1219 11.8749 11.125C11.4218 11.125 11.0121 11.2972 10.721 11.6105C10.43 11.9238 10.2835 12.3574 10.3171 12.8215C10.3839 13.7386 11.0828 14.4844 11.8749 14.4844C12.6671 14.4844 13.3648 13.7386 13.4324 12.8222C13.4667 12.3621 13.3222 11.9328 13.0265 11.6136ZM14.5191 18H9.2308C9.16196 18.0011 9.09371 17.9871 9.03088 17.9589C8.96804 17.9308 8.91215 17.8892 8.86713 17.8371C8.81832 17.7786 8.78329 17.7099 8.76463 17.6361C8.74596 17.5622 8.74415 17.4852 8.75932 17.4105C8.88627 16.7246 9.28197 16.1484 9.90385 15.7441C10.4562 15.3851 11.1562 15.1875 11.8749 15.1875C12.5937 15.1875 13.2937 15.3851 13.846 15.7441C14.4679 16.1484 14.8636 16.7246 14.9906 17.4105C15.0057 17.4852 15.0039 17.5622 14.9853 17.6361C14.9666 17.7099 14.9316 17.7786 14.8828 17.8371C14.8377 17.8892 14.7818 17.9308 14.719 17.9589C14.6562 17.9871 14.5879 18.0011 14.5191 18Z" fill="#157A8C"/>
</svg>
