<svg width="20" height="20" viewBox="0 0 20 20" fill="none" xmlns="http://www.w3.org/2000/svg">
<path d="M8.8225 12.26C9.77417 12.26 10.585 11.925 11.255 11.255C11.925 10.585 12.26 9.77417 12.26 8.8225C12.26 7.87 11.925 7.05917 11.255 6.39C10.585 5.72 9.77417 5.385 8.8225 5.385C7.87 5.385 7.05917 5.72 6.39 6.39C5.72 7.05917 5.385 7.87 5.385 8.8225C5.385 9.77417 5.72 10.585 6.39 11.255C7.05917 11.925 7.87 12.26 8.8225 12.26ZM15.1175 16.01L11.6675 12.535C11.2508 12.855 10.8046 13.0975 10.3287 13.2625C9.85125 13.4275 9.34917 13.51 8.8225 13.51C7.51917 13.51 6.41208 13.0542 5.50125 12.1425C4.59042 11.2317 4.135 10.125 4.135 8.8225C4.135 7.51917 4.59042 6.41208 5.50125 5.50125C6.41208 4.59042 7.51917 4.135 8.8225 4.135C10.125 4.135 11.2317 4.59042 12.1425 5.50125C13.0542 6.41208 13.51 7.51917 13.51 8.8225C13.51 9.34917 13.4263 9.85125 13.2588 10.3287C13.0913 10.8054 12.8479 11.2521 12.5287 11.6687L16.01 15.125L15.1175 16.01ZM2.01875 20C1.44375 20 0.96375 19.8075 0.57875 19.4225C0.192916 19.0367 0 18.5562 0 17.9813V13.75H1.25V17.9813C1.25 18.1729 1.33 18.3492 1.49 18.51C1.65083 18.67 1.82708 18.75 2.01875 18.75H6.25V20H2.01875ZM13.75 20V18.75H17.9813C18.1729 18.75 18.3492 18.67 18.51 18.51C18.67 18.3492 18.75 18.1729 18.75 17.9813V13.75H20V17.9813C20 18.5562 19.8075 19.0363 19.4225 19.4213C19.0367 19.8071 18.5562 20 17.9813 20H13.75ZM0 6.25V2.01875C0 1.44375 0.192916 0.96375 0.57875 0.57875C0.96375 0.192916 1.44375 0 2.01875 0H6.25V1.25H2.01875C1.82708 1.25 1.65083 1.33 1.49 1.49C1.33 1.65083 1.25 1.82708 1.25 2.01875V6.25H0ZM18.75 6.25V2.01875C18.75 1.82708 18.67 1.65083 18.51 1.49C18.3492 1.33 18.1729 1.25 17.9813 1.25H13.75V0H17.9813C18.5562 0 19.0363 0.192916 19.4213 0.57875C19.8071 0.96375 20 1.44375 20 2.01875V6.25H18.75Z" fill="#157A8C"/>
</svg>
