<svg width="20" height="21" viewBox="0 0 20 21" fill="none" xmlns="http://www.w3.org/2000/svg">
<path d="M10 20.5C7.44444 20.5 5.21778 19.653 3.32 17.9589C1.42222 16.2648 0.334074 14.1489 0.0555555 11.6111H2.33333C2.59259 13.537 3.44926 15.1296 4.90333 16.3889C6.35741 17.6481 8.0563 18.2778 10 18.2778C12.1667 18.2778 14.0048 17.5233 15.5144 16.0144C17.0241 14.5056 17.7785 12.6674 17.7778 10.5C17.7778 8.33333 17.0233 6.49556 15.5144 4.98667C14.0056 3.47778 12.1674 2.72296 10 2.72222C8.72222 2.72222 7.52778 3.01852 6.41667 3.61111C5.30555 4.2037 4.37037 5.01852 3.61111 6.05556H6.66667V8.27778H0V1.61111H2.22222V4.22222C3.16667 3.03704 4.31963 2.12037 5.68111 1.47222C7.04259 0.824074 8.48222 0.5 10 0.5C11.3889 0.5 12.69 0.764074 13.9033 1.29222C15.1167 1.82037 16.1722 2.53296 17.07 3.43C17.9678 4.32852 18.6807 5.38407 19.2089 6.59667C19.737 7.80926 20.0007 9.11037 20 10.5C20 11.8889 19.7363 13.19 19.2089 14.4033C18.6815 15.6167 17.9685 16.6722 17.07 17.57C16.1715 18.4678 15.1159 19.1807 13.9033 19.7089C12.6907 20.237 11.3896 20.5007 10 20.5ZM13.1111 15.1667L8.88889 10.9444V4.94444H11.1111V10.0556L14.6667 13.6111L13.1111 15.1667Z" fill="#157A8C"/>
</svg>
