<svg width="20" height="21" viewBox="0 0 20 21" fill="none" xmlns="http://www.w3.org/2000/svg">
<path d="M2 7.30924C2 5.50332 2.84285 3.77136 4.34315 2.49438C5.84344 1.2174 7.87827 0.5 10 0.5C12.1217 0.5 14.1566 1.2174 15.6569 2.49438C17.1571 3.77136 18 5.50332 18 7.30924V11.3071L20 13.8606V17.5231H14.389C14.1615 18.3689 13.6036 19.124 12.8064 19.6647C12.0091 20.2055 11.0199 20.5 10.0005 20.5C8.98109 20.5 7.99185 20.2055 7.19465 19.6647C6.39744 19.124 5.83946 18.3689 5.612 17.5231H0V13.8606L2 11.3071V7.30924ZM7.708 17.5231C7.90238 17.9029 8.2228 18.2262 8.62995 18.4532C9.03709 18.6803 9.51325 18.8012 10 18.8012C10.4867 18.8012 10.9629 18.6803 11.3701 18.4532C11.7772 18.2262 12.0976 17.9029 12.292 17.5231H7.708ZM10 2.20231C8.4087 2.20231 6.88258 2.74036 5.75736 3.6981C4.63214 4.65583 4 5.9548 4 7.30924V11.8229L2 14.3764V15.8208H18V14.3764L16 11.8229V7.30924C16 5.9548 15.3679 4.65583 14.2426 3.6981C13.1174 2.74036 11.5913 2.20231 10 2.20231Z" fill="#157A8C"/>
</svg>
