<svg width="20" height="21" viewBox="0 0 20 21" fill="none" xmlns="http://www.w3.org/2000/svg">
<path d="M10 19.25C8.26942 19.25 6.57769 18.7368 5.13876 17.7754C3.69983 16.8139 2.57832 15.4473 1.91606 13.8485C1.25379 12.2496 1.08051 10.4903 1.41813 8.79296C1.75575 7.09563 2.58911 5.53653 3.81282 4.31282C5.03653 3.08911 6.59563 2.25575 8.29296 1.91813C9.9903 1.58051 11.7496 1.75379 13.3485 2.41606C14.9473 3.07832 16.3139 4.19983 17.2754 5.63876C18.2368 7.07769 18.75 8.76942 18.75 10.5C18.75 12.8206 17.8281 15.0462 16.1872 16.6872C14.5462 18.3281 12.3206 19.25 10 19.25ZM10 3C8.51664 3 7.0666 3.43987 5.83323 4.26398C4.59986 5.08809 3.63856 6.25943 3.07091 7.62988C2.50325 9.00032 2.35473 10.5083 2.64411 11.9632C2.9335 13.418 3.64781 14.7544 4.6967 15.8033C5.7456 16.8522 7.08197 17.5665 8.53683 17.8559C9.99168 18.1453 11.4997 17.9968 12.8701 17.4291C14.2406 16.8614 15.4119 15.9001 16.236 14.6668C17.0601 13.4334 17.5 11.9834 17.5 10.5C17.5 8.51088 16.7098 6.60323 15.3033 5.1967C13.8968 3.79018 11.9891 3 10 3Z" fill="#157A8C"/>
<path d="M12.8688 14.25L9.375 10.7562V4.875H10.625V10.2375L13.75 13.3687L12.8688 14.25Z" fill="#157A8C"/>
</svg>
