<svg width="20" height="20" viewBox="0 0 20 20" fill="none" xmlns="http://www.w3.org/2000/svg">
<path d="M3.75 3.5C3.75 3.03587 3.93437 2.59075 4.26256 2.26256C4.59075 1.93437 5.03587 1.75 5.5 1.75C5.96413 1.75 6.40925 1.93437 6.73744 2.26256C7.06563 2.59075 7.25 3.03587 7.25 3.5C7.25 3.96413 7.06563 4.40925 6.73744 4.73744C6.40925 5.06563 5.96413 5.25 5.5 5.25C5.03587 5.25 4.59075 5.06563 4.26256 4.73744C3.93437 4.40925 3.75 3.96413 3.75 3.5ZM5.5 0.5C5.10603 0.5 4.71593 0.577597 4.35195 0.728361C3.98797 0.879125 3.65726 1.1001 3.37868 1.37868C3.1001 1.65726 2.87913 1.98797 2.72836 2.35195C2.5776 2.71593 2.5 3.10603 2.5 3.5C2.5 3.89397 2.5776 4.28407 2.72836 4.64805C2.87913 5.01203 3.1001 5.34274 3.37868 5.62132C3.65726 5.8999 3.98797 6.12087 4.35195 6.27164C4.71593 6.4224 5.10603 6.5 5.5 6.5C6.29565 6.5 7.05871 6.18393 7.62132 5.62132C8.18393 5.05871 8.5 4.29565 8.5 3.5C8.5 2.70435 8.18393 1.94129 7.62132 1.37868C7.05871 0.816071 6.29565 0.5 5.5 0.5ZM12.75 3.5C12.75 3.03587 12.9344 2.59075 13.2626 2.26256C13.5908 1.93437 14.0359 1.75 14.5 1.75C14.9641 1.75 15.4092 1.93437 15.7374 2.26256C16.0656 2.59075 16.25 3.03587 16.25 3.5C16.25 3.96413 16.0656 4.40925 15.7374 4.73744C15.4092 5.06563 14.9641 5.25 14.5 5.25C14.0359 5.25 13.5908 5.06563 13.2626 4.73744C12.9344 4.40925 12.75 3.96413 12.75 3.5ZM14.5 0.5C14.106 0.5 13.7159 0.577597 13.3519 0.728361C12.988 0.879125 12.6573 1.1001 12.3787 1.37868C12.1001 1.65726 11.8791 1.98797 11.7284 2.35195C11.5776 2.71593 11.5 3.10603 11.5 3.5C11.5 3.89397 11.5776 4.28407 11.7284 4.64805C11.8791 5.01203 12.1001 5.34274 12.3787 5.62132C12.6573 5.8999 12.988 6.12087 13.3519 6.27164C13.7159 6.4224 14.106 6.5 14.5 6.5C15.2956 6.5 16.0587 6.18393 16.6213 5.62132C17.1839 5.05871 17.5 4.29565 17.5 3.5C17.5 2.70435 17.1839 1.94129 16.6213 1.37868C16.0587 0.816071 15.2956 0.5 14.5 0.5ZM0 9.223C0 8.99673 0.0445666 8.77268 0.131155 8.56364C0.217744 8.35459 0.34466 8.16465 0.504655 8.00465C0.66465 7.84466 0.854593 7.71774 1.06364 7.63116C1.27268 7.54457 1.49673 7.5 1.723 7.5H6.535C6.31068 7.88749 6.15347 8.31011 6.07 8.75H1.723C1.66088 8.75 1.59938 8.76223 1.54199 8.78601C1.4846 8.80978 1.43246 8.84462 1.38854 8.88854C1.34462 8.93246 1.30978 8.9846 1.28601 9.04199C1.26223 9.09938 1.25 9.16088 1.25 9.223V9.4375C1.25 9.5725 1.2515 10.404 1.7595 11.19C2.2075 11.884 3.121 12.65 5.1015 12.741C4.58562 12.975 4.15513 13.3633 3.8695 13.8525C2.2585 13.5365 1.2795 12.751 0.7095 11.8685C5.96046e-08 10.77 0 9.635 0 9.4385V9.223ZM14.8985 12.741C15.4144 12.975 15.8449 13.3633 16.1305 13.8525C17.7415 13.5365 18.7205 12.751 19.2905 11.8685C20 10.77 20 9.635 20 9.4385V9.2235C20.0001 8.99719 19.9555 8.77308 19.869 8.56398C19.7824 8.35488 19.6555 8.16488 19.4955 8.00483C19.3355 7.84478 19.1456 7.71782 18.9365 7.6312C18.7274 7.54458 18.5033 7.5 18.277 7.5H13.465C13.685 7.8815 13.845 8.3025 13.93 8.75H18.277C18.538 8.75 18.75 8.962 18.75 9.223V9.4375C18.75 9.5725 18.7485 10.404 18.2405 11.19C17.7925 11.884 16.879 12.65 14.8985 12.741ZM10 7.75C9.53587 7.75 9.09075 7.93437 8.76256 8.26256C8.43437 8.59075 8.25 9.03587 8.25 9.5C8.25 9.96413 8.43437 10.4092 8.76256 10.7374C9.09075 11.0656 9.53587 11.25 10 11.25C10.4641 11.25 10.9092 11.0656 11.2374 10.7374C11.5656 10.4092 11.75 9.96413 11.75 9.5C11.75 9.03587 11.5656 8.59075 11.2374 8.26256C10.9092 7.93437 10.4641 7.75 10 7.75ZM7 9.5C7 8.70435 7.31607 7.94129 7.87868 7.37868C8.44129 6.81607 9.20435 6.5 10 6.5C10.7956 6.5 11.5587 6.81607 12.1213 7.37868C12.6839 7.94129 13 8.70435 13 9.5C13 10.2956 12.6839 11.0587 12.1213 11.6213C11.5587 12.1839 10.7956 12.5 10 12.5C9.20435 12.5 8.44129 12.1839 7.87868 11.6213C7.31607 11.0587 7 10.2956 7 9.5ZM4.5 15.223C4.5 14.766 4.68153 14.3278 5.00465 14.0047C5.32778 13.6815 5.76603 13.5 6.223 13.5H13.777C14.234 13.5 14.6722 13.6815 14.9953 14.0047C15.3185 14.3278 15.5 14.766 15.5 15.223V15.4385C15.5 15.6355 15.5 16.77 14.7905 17.8685C14.049 19.0165 12.6165 20 10 20C7.3835 20 5.951 19.0165 5.2095 17.8685C4.5 16.77 4.5 15.635 4.5 15.4385V15.223ZM6.223 14.75C6.09755 14.75 5.97724 14.7998 5.88854 14.8885C5.79983 14.9772 5.75 15.0976 5.75 15.223V15.4375C5.75 15.5725 5.7515 16.404 6.2595 17.19C6.7365 17.929 7.7415 18.75 10 18.75C12.2585 18.75 13.2635 17.929 13.7405 17.19C14.2485 16.404 14.25 15.5725 14.25 15.4375V15.223C14.25 15.0976 14.2002 14.9772 14.1115 14.8885C14.0228 14.7998 13.9024 14.75 13.777 14.75H6.223Z" fill="#157A8C"/>
</svg>
