<svg width="16" height="16" viewBox="0 0 16 16" fill="none" xmlns="http://www.w3.org/2000/svg">
<path fill-rule="evenodd" clip-rule="evenodd" d="M5.33325 1.91667C5.33325 1.47464 5.50885 1.05072 5.82141 0.738155C6.13397 0.425595 6.55789 0.25 6.99992 0.25H8.66658C9.10861 0.25 9.53254 0.425595 9.8451 0.738155C10.1577 1.05072 10.3333 1.47464 10.3333 1.91667V5.25H13.6666C14.1086 5.25 14.5325 5.42559 14.8451 5.73816C15.1577 6.05072 15.3333 6.47464 15.3333 6.91667V8.58333C15.3333 9.02536 15.1577 9.44928 14.8451 9.76184C14.5325 10.0744 14.1086 10.25 13.6666 10.25H10.3333V13.5833C10.3333 14.0254 10.1577 14.4493 9.8451 14.7618C9.53254 15.0744 9.10861 15.25 8.66658 15.25H6.99992C6.55789 15.25 6.13397 15.0744 5.82141 14.7618C5.50885 14.4493 5.33325 14.0254 5.33325 13.5833V10.25H1.99992C1.55789 10.25 1.13397 10.0744 0.821407 9.76184C0.508847 9.44928 0.333252 9.02536 0.333252 8.58333V6.91667C0.333252 6.47464 0.508847 6.05072 0.821407 5.73816C1.13397 5.42559 1.55789 5.25 1.99992 5.25H5.33325V1.91667ZM8.66658 1.91667H6.99992V6.08333C6.99992 6.30435 6.91212 6.51631 6.75584 6.67259C6.59956 6.82887 6.3876 6.91667 6.16658 6.91667H1.99992V8.58333H6.16658C6.3876 8.58333 6.59956 8.67113 6.75584 8.82741C6.91212 8.98369 6.99992 9.19565 6.99992 9.41667V13.5833H8.66658V9.41667C8.66658 9.19565 8.75438 8.98369 8.91066 8.82741C9.06694 8.67113 9.2789 8.58333 9.49992 8.58333H13.6666V6.91667H9.49992C9.2789 6.91667 9.06694 6.82887 8.91066 6.67259C8.75438 6.51631 8.66658 6.30435 8.66658 6.08333V1.91667Z" fill="#106B87"/>
</svg>
