<svg width="60" height="60" viewBox="0 0 70 70" fill="none" xmlns="http://www.w3.org/2000/svg">
<rect width="70" height="70" rx="35" fill="#4CB8E7"/>
<path fill-rule="evenodd" clip-rule="evenodd" d="M31.234 27.5311C32.7899 26.7238 34.5606 26.4277 36.2945 26.6848C38.0631 26.947 39.7004 27.7712 40.9647 29.0354C42.2289 30.2997 43.053 31.937 43.3153 33.7056C43.5724 35.4394 43.2763 37.2102 42.469 38.766C41.6617 40.3219 40.3844 41.5835 38.8187 42.3716C37.253 43.1596 35.4787 43.4339 33.7482 43.1555C32.0176 42.877 30.419 42.0599 29.1796 40.8205C27.9401 39.5811 27.1231 37.9824 26.8446 36.2519C26.5661 34.5213 26.8404 32.747 27.6285 31.1814C28.4165 29.6157 29.6782 28.3384 31.234 27.5311ZM35.8055 29.982C34.7652 29.8278 33.7028 30.0055 32.7693 30.4898C31.8358 30.9742 31.0788 31.7406 30.6059 32.68C30.1331 33.6194 29.9685 34.684 30.1356 35.7223C30.3027 36.7606 30.7929 37.7198 31.5366 38.4635C32.2802 39.2071 33.2394 39.6974 34.2778 39.8645C35.3161 40.0315 36.3807 39.867 37.3201 39.3941C38.2595 38.9213 39.0259 38.1643 39.5102 37.2308C39.9946 36.2973 40.1723 35.2349 40.018 34.1945C39.8607 33.1334 39.3662 32.151 38.6076 31.3924C37.8491 30.6339 36.8667 30.1394 35.8055 29.982Z" fill="#F7F9FC"/>
<path d="M44.1667 24.1667C43.2463 24.1667 42.5001 24.9129 42.5001 25.8334C42.5001 26.7539 43.2463 27.5001 44.1667 27.5001H44.1834C45.1039 27.5001 45.8501 26.7539 45.8501 25.8334C45.8501 24.9129 45.1039 24.1667 44.1834 24.1667H44.1667Z" fill="#F7F9FC"/>
<path fill-rule="evenodd" clip-rule="evenodd" d="M16.6667 26.6667C16.6667 21.1439 21.1439 16.6667 26.6667 16.6667H43.3334C48.8563 16.6667 53.3334 21.1439 53.3334 26.6667V43.3334C53.3334 48.8563 48.8563 53.3334 43.3334 53.3334H26.6667C21.1439 53.3334 16.6667 48.8563 16.6667 43.3334V26.6667ZM26.6667 20.0001C22.9848 20.0001 20.0001 22.9848 20.0001 26.6667V43.3334C20.0001 47.0153 22.9848 50.0001 26.6667 50.0001H43.3334C47.0153 50.0001 50.0001 47.0153 50.0001 43.3334V26.6667C50.0001 22.9848 47.0153 20.0001 43.3334 20.0001H26.6667Z" fill="#F7F9FC"/>
</svg>
