<svg width="64" height="42" viewBox="0 0 64 42" fill="none" xmlns="http://www.w3.org/2000/svg">
<path d="M18.5804 42H8.25273L11.7655 28.5621C13.0021 25.3159 17.5266 24.2585 19.6343 24.1355H36.4958C40.2615 24.5571 42.9359 22.8005 43.8024 21.8695C46.5003 19.0028 47.69 14.2811 47.9476 12.2785V9.48557C47.7227 6.49235 45.4183 5.70891 44.2942 5.69134H2.70248C3.20832 1.60201 6.37923 0.193225 7.90145 0H50.6173C52.7718 0.0878294 57.8116 0.748306 60.7342 2.68758C63.6569 4.62685 63.7787 8.06274 63.4742 9.53827L58.486 24.7152C57.2495 28.1721 52.4908 29.4931 50.266 29.7215L29.8214 29.9849C26.4491 29.6898 25.044 31.8996 24.763 33.0414L22.9363 39.0489C22.2056 41.3255 19.7279 41.9649 18.5804 42Z" fill="#157A8C"/>
<path d="M18.5804 42H8.25273L11.7655 28.5621C13.0021 25.3159 17.5266 24.2585 19.6343 24.1355H36.4958C40.2615 24.5571 42.9359 22.8005 43.8024 21.8695C46.5003 19.0028 47.69 14.2811 47.9476 12.2785V9.48557C47.7227 6.49235 45.4183 5.70891 44.2942 5.69134H2.70248C3.20832 1.60201 6.37923 0.193225 7.90145 0H50.6173C52.7718 0.0878294 57.8116 0.748306 60.7342 2.68758C63.6569 4.62685 63.7787 8.06274 63.4742 9.53827L58.486 24.7152C57.2495 28.1721 52.4908 29.4931 50.266 29.7215L29.8214 29.9849C26.4491 29.6898 25.044 31.8996 24.763 33.0414L22.9363 39.0489C22.2056 41.3255 19.7279 41.9649 18.5804 42Z" fill="url(#paint0_linear_150_320)"/>
<path d="M26.9409 20.0778C26.8847 19.9092 27.2454 18.5671 27.4327 17.9172H3.68606C3.34883 17.9172 2.56196 17.8821 2.21068 17.8645C0.131097 17.4429 -0.107774 16.1782 0.0327384 15.5985L1.08658 11.8043H29.1891L29.8917 9.74906C30.2289 9.36964 30.8753 9.45044 31.1563 9.53827C33.1937 10.8381 37.5496 13.6171 38.6737 14.3338C39.7978 15.0504 39.1421 15.862 38.6737 16.1782L28.2055 20.4994H27.503C27.2219 20.4994 27.0112 20.2886 26.9409 20.0778Z" fill="#157A8C"/>
<path d="M26.9409 20.0778C26.8847 19.9092 27.2454 18.5671 27.4327 17.9172H3.68606C3.34883 17.9172 2.56196 17.8821 2.21068 17.8645C0.131097 17.4429 -0.107774 16.1782 0.0327384 15.5985L1.08658 11.8043H29.1891L29.8917 9.74906C30.2289 9.36964 30.8753 9.45044 31.1563 9.53827C33.1937 10.8381 37.5496 13.6171 38.6737 14.3338C39.7978 15.0504 39.1421 15.862 38.6737 16.1782L28.2055 20.4994H27.503C27.2219 20.4994 27.0112 20.2886 26.9409 20.0778Z" fill="url(#paint1_linear_150_320)"/>
<defs>
<linearGradient id="paint0_linear_150_320" x1="31.794" y1="0" x2="31.794" y2="42" gradientUnits="userSpaceOnUse">
<stop stop-color="#3094A6"/>
<stop offset="0.47" stop-color="#276DA1"/>
<stop offset="1" stop-color="#21539E"/>
</linearGradient>
<linearGradient id="paint1_linear_150_320" x1="31.794" y1="0" x2="31.794" y2="42" gradientUnits="userSpaceOnUse">
<stop stop-color="#3094A6"/>
<stop offset="0.47" stop-color="#276DA1"/>
<stop offset="1" stop-color="#21539E"/>
</linearGradient>
</defs>
</svg>
