<svg width="201" height="59" viewBox="0 0 201 59" fill="none" xmlns="http://www.w3.org/2000/svg">
<path d="M110.756 23.2073L109.218 32.6432L83.6796 32.6432C81.3206 32.6432 80.295 33.6688 80.295 35.6175C80.295 37.1765 81.7309 37.5662 82.4488 37.5662H100.603C104.91 38.1816 106.551 40.5406 107.782 43.2073C108.767 45.3406 108.192 48.2671 107.782 49.4637H138.039C138.962 49.4637 141.013 48.3355 140.808 46.4893C140.644 45.0124 139.714 44.5748 139.269 44.5406H122.756C116.09 44.5406 114.346 40.5406 113.321 38.6945C112.5 37.2175 112.979 34.0449 113.321 32.6432C113.355 31.9594 114.1 29.8329 116.808 26.797C119.515 23.7611 124.021 23.1389 125.936 23.2073H200.5L198.859 32.6432H180.808L176.295 58.6945H166.551L170.962 32.6432H125.628C124.808 32.6432 122.756 33.4637 122.756 35.515C122.756 37.156 124.329 37.5662 125.115 37.5662H141.936C149.239 37.5662 150.927 43.515 150.859 46.4893C150.039 55.6791 142.38 58.4551 138.654 58.6945H67.1667L68.6026 49.4637H96.3975C99.7616 47.0021 97.7992 45.156 96.3975 44.5406H80.3975C79.577 44.5406 75.2693 44.3355 72.7052 41.7714C70.1411 39.2073 69.0129 34.3868 72.7052 28.6432C75.659 24.0483 80.9103 23.1047 83.1667 23.2073H110.756Z" fill="#003F69"/>
<path d="M110.756 23.2073L109.218 32.6432L83.6796 32.6432C81.3206 32.6432 80.295 33.6688 80.295 35.6175C80.295 37.1765 81.7309 37.5662 82.4488 37.5662H100.603C104.91 38.1816 106.551 40.5406 107.782 43.2073C108.767 45.3406 108.192 48.2671 107.782 49.4637H138.039C138.962 49.4637 141.013 48.3355 140.808 46.4893C140.644 45.0124 139.714 44.5748 139.269 44.5406H122.756C116.09 44.5406 114.346 40.5406 113.321 38.6945C112.5 37.2175 112.979 34.0449 113.321 32.6432C113.355 31.9594 114.1 29.8329 116.808 26.797C119.515 23.7611 124.021 23.1389 125.936 23.2073H200.5L198.859 32.6432H180.808L176.295 58.6945H166.551L170.962 32.6432H125.628C124.808 32.6432 122.756 33.4637 122.756 35.515C122.756 37.156 124.329 37.5662 125.115 37.5662H141.936C149.239 37.5662 150.927 43.515 150.859 46.4893C150.039 55.6791 142.38 58.4551 138.654 58.6945H67.1667L68.6026 49.4637H96.3975C99.7616 47.0021 97.7992 45.156 96.3975 44.5406H80.3975C79.577 44.5406 75.2693 44.3355 72.7052 41.7714C70.1411 39.2073 69.0129 34.3868 72.7052 28.6432C75.659 24.0483 80.9103 23.1047 83.1667 23.2073H110.756Z" fill="url(#paint0_linear_115_114)"/>
<path d="M19.98 58.7053H9.1523L12.8352 39.9226C14.1316 35.3852 18.8751 33.9072 21.0849 33.7353H38.7628C42.7108 34.3246 45.5147 31.8693 46.4232 30.568C49.2517 26.561 50.4989 19.9613 50.769 17.1623V13.2584C50.5333 9.07465 48.1173 7.9796 46.9388 7.95505H3.33332C3.86366 2.2392 7.18809 0.270079 8.78401 0H53.568C55.8268 0.122763 61.1106 1.04594 64.1747 3.75655C67.2389 6.46716 67.3666 11.2697 67.0474 13.3321L61.8177 34.5455C60.5213 39.3775 55.5322 41.2239 53.1997 41.543L31.7653 41.9113C28.2297 41.4988 26.7565 44.5876 26.4619 46.1835L24.5468 54.5805C23.7808 57.7625 21.1831 58.6562 19.98 58.7053Z" fill="#003F69"/>
<path d="M19.98 58.7053H9.1523L12.8352 39.9226C14.1316 35.3852 18.8751 33.9072 21.0849 33.7353H38.7628C42.7108 34.3246 45.5147 31.8693 46.4232 30.568C49.2517 26.561 50.4989 19.9613 50.769 17.1623V13.2584C50.5333 9.07465 48.1173 7.9796 46.9388 7.95505H3.33332C3.86366 2.2392 7.18809 0.270079 8.78401 0H53.568C55.8268 0.122763 61.1106 1.04594 64.1747 3.75655C67.2389 6.46716 67.3666 11.2697 67.0474 13.3321L61.8177 34.5455C60.5213 39.3775 55.5322 41.2239 53.1997 41.543L31.7653 41.9113C28.2297 41.4988 26.7565 44.5876 26.4619 46.1835L24.5468 54.5805C23.7808 57.7625 21.1831 58.6562 19.98 58.7053Z" fill="url(#paint1_linear_115_114)"/>
<path d="M28.7453 28.0637C28.6864 27.8279 29.0645 25.9521 29.2609 25.0437H4.36452C4.01096 25.0437 3.186 24.9946 2.81772 24.97C0.637444 24.3808 0.387008 22.613 0.534323 21.8027L1.63919 16.4994H31.1023L31.8389 13.6267C32.1925 13.0964 32.8701 13.2093 33.1648 13.3321C35.3008 15.149 39.8676 19.0332 41.0462 20.0349C42.2247 21.0367 41.5372 22.171 41.0462 22.613L30.0711 28.6529H29.3346C29.0399 28.6529 28.819 28.3583 28.7453 28.0637Z" fill="#003F69"/>
<path d="M28.7453 28.0637C28.6864 27.8279 29.0645 25.9521 29.2609 25.0437H4.36452C4.01096 25.0437 3.186 24.9946 2.81772 24.97C0.637444 24.3808 0.387008 22.613 0.534323 21.8027L1.63919 16.4994H31.1023L31.8389 13.6267C32.1925 13.0964 32.8701 13.2093 33.1648 13.3321C35.3008 15.149 39.8676 19.0332 41.0462 20.0349C42.2247 21.0367 41.5372 22.171 41.0462 22.613L30.0711 28.6529H29.3346C29.0399 28.6529 28.819 28.3583 28.7453 28.0637Z" fill="url(#paint2_linear_115_114)"/>
<defs>
<linearGradient id="paint0_linear_115_114" x1="133.833" y1="23.2" x2="133.833" y2="58.6945" gradientUnits="userSpaceOnUse">
<stop stop-color="#663381" stop-opacity="0"/>
<stop offset="0.0001" stop-color="#0038FF" stop-opacity="0.53"/>
<stop offset="1" stop-color="#0A3676"/>
</linearGradient>
<linearGradient id="paint1_linear_115_114" x1="33.8333" y1="0" x2="33.8333" y2="58.7053" gradientUnits="userSpaceOnUse">
<stop stop-color="#663381" stop-opacity="0"/>
<stop offset="0.0001" stop-color="#0038FF" stop-opacity="0.53"/>
<stop offset="1" stop-color="#0A3676"/>
</linearGradient>
<linearGradient id="paint2_linear_115_114" x1="33.8333" y1="0" x2="33.8333" y2="58.7053" gradientUnits="userSpaceOnUse">
<stop stop-color="#663381" stop-opacity="0"/>
<stop offset="0.0001" stop-color="#0038FF" stop-opacity="0.53"/>
<stop offset="1" stop-color="#0A3676"/>
</linearGradient>
</defs>
</svg>
