<svg width="32" height="29" viewBox="0 0 32 29" fill="none" xmlns="http://www.w3.org/2000/svg">
<path d="M9.3504 28.1786H4.1531L5.92089 19.1628C6.54315 16.9849 8.82007 16.2754 9.88074 16.1929H18.3661C20.2612 16.4758 21.6071 15.2973 22.0431 14.6727C23.4008 12.7493 23.9995 9.58142 24.1291 8.2379V6.36404C24.016 4.35583 22.8563 3.83021 22.2906 3.81842H1.36C1.61456 1.07482 3.21028 0.129638 3.97632 0H25.4726C26.5569 0.0589263 29.0931 0.502052 30.5639 1.80314C32.0347 3.10424 32.096 5.40943 31.9427 6.3994L29.4325 16.5819C28.8102 18.9012 26.4155 19.7875 25.2959 19.9407L15.0073 20.1174C13.3102 19.9194 12.6031 21.402 12.4617 22.1681L11.5425 26.1986C11.1748 27.726 9.92788 28.155 9.3504 28.1786Z" fill="#003F69"/>
<path d="M9.3504 28.1786H4.1531L5.92089 19.1628C6.54315 16.9849 8.82007 16.2754 9.88074 16.1929H18.3661C20.2612 16.4758 21.6071 15.2973 22.0431 14.6727C23.4008 12.7493 23.9995 9.58142 24.1291 8.2379V6.36404C24.016 4.35583 22.8563 3.83021 22.2906 3.81842H1.36C1.61456 1.07482 3.21028 0.129638 3.97632 0H25.4726C26.5569 0.0589263 29.0931 0.502052 30.5639 1.80314C32.0347 3.10424 32.096 5.40943 31.9427 6.3994L29.4325 16.5819C28.8102 18.9012 26.4155 19.7875 25.2959 19.9407L15.0073 20.1174C13.3102 19.9194 12.6031 21.402 12.4617 22.1681L11.5425 26.1986C11.1748 27.726 9.92788 28.155 9.3504 28.1786Z" fill="url(#paint0_linear_76_24)"/>
<path d="M13.5577 13.4706C13.5295 13.3574 13.7109 12.457 13.8052 12.021H1.85497C1.68526 12.021 1.28928 11.9974 1.1125 11.9856C0.0659733 11.7028 -0.0542363 10.8542 0.0164753 10.4653L0.546812 7.9197H14.6891L15.0427 6.54082C15.2124 6.28626 15.5377 6.34047 15.6791 6.3994C16.7044 7.27151 18.8965 9.13593 19.4622 9.61677C20.0278 10.0976 19.6979 10.6421 19.4622 10.8542L14.1941 13.7534H13.8406C13.6992 13.7534 13.5931 13.612 13.5577 13.4706Z" fill="#003F69"/>
<path d="M13.5577 13.4706C13.5295 13.3574 13.7109 12.457 13.8052 12.021H1.85497C1.68526 12.021 1.28928 11.9974 1.1125 11.9856C0.0659733 11.7028 -0.0542363 10.8542 0.0164753 10.4653L0.546812 7.9197H14.6891L15.0427 6.54082C15.2124 6.28626 15.5377 6.34047 15.6791 6.3994C16.7044 7.27151 18.8965 9.13593 19.4622 9.61677C20.0278 10.0976 19.6979 10.6421 19.4622 10.8542L14.1941 13.7534H13.8406C13.6992 13.7534 13.5931 13.612 13.5577 13.4706Z" fill="url(#paint1_linear_76_24)"/>
<defs>
<linearGradient id="paint0_linear_76_24" x1="16" y1="0" x2="16" y2="28.1786" gradientUnits="userSpaceOnUse">
<stop stop-color="#663381" stop-opacity="0"/>
<stop offset="0.0001" stop-color="#0038FF" stop-opacity="0.53"/>
<stop offset="1" stop-color="#0A3676"/>
</linearGradient>
<linearGradient id="paint1_linear_76_24" x1="16" y1="0" x2="16" y2="28.1786" gradientUnits="userSpaceOnUse">
<stop stop-color="#663381" stop-opacity="0"/>
<stop offset="0.0001" stop-color="#0038FF" stop-opacity="0.53"/>
<stop offset="1" stop-color="#0A3676"/>
</linearGradient>
</defs>
</svg>
