<svg width="17" height="17" viewBox="0 0 17 17" fill="none" xmlns="http://www.w3.org/2000/svg">
<path d="M4.66659 4.58333H12.9999M4.66659 8.75H12.9999M4.66659 12.9167H9.66659M14.6666 1.25H2.99992C2.55789 1.25 2.13397 1.42559 1.82141 1.73816C1.50885 2.05072 1.33325 2.47464 1.33325 2.91667V14.5833C1.33325 15.0254 1.50885 15.4493 1.82141 15.7618C2.13397 16.0744 2.55789 16.25 2.99992 16.25H14.6666C15.1086 16.25 15.5325 16.0744 15.8451 15.7618C16.1577 15.4493 16.3333 15.0254 16.3333 14.5833V2.91667C16.3333 2.47464 16.1577 2.05072 15.8451 1.73816C15.5325 1.42559 15.1086 1.25 14.6666 1.25Z" stroke="#106B87" stroke-width="1.25" stroke-linecap="round" stroke-linejoin="round"/>
</svg>
