<svg width="14" height="18" viewBox="0 0 14 18" fill="none" xmlns="http://www.w3.org/2000/svg">
<path d="M6.99997 7.58332C8.84164 7.58332 10.3333 6.09166 10.3333 4.24999C10.3333 2.40832 8.84164 0.916656 6.99997 0.916656C5.15831 0.916656 3.66664 2.40832 3.66664 4.24999C3.66664 6.09166 5.15831 7.58332 6.99997 7.58332ZM6.99997 2.58332C7.91664 2.58332 8.66664 3.33332 8.66664 4.24999C8.66664 5.16666 7.91664 5.91666 6.99997 5.91666C6.08331 5.91666 5.33331 5.16666 5.33331 4.24999C5.33331 3.33332 6.08331 2.58332 6.99997 2.58332ZM12.325 9.71666C10.925 8.99999 9.10831 8.41666 6.99997 8.41666C4.89164 8.41666 3.07497 8.99999 1.67497 9.71666C1.26835 9.92609 0.927724 10.2441 0.690889 10.6354C0.454055 11.0267 0.330281 11.4759 0.333306 11.9333V17.5833H1.99997V11.9333C1.99997 11.6167 2.16664 11.3333 2.41664 11.2C3.42497 10.6917 5.02497 10.0833 6.99997 10.0833C7.63331 10.0833 8.22497 10.1417 8.77497 10.25L7.48331 13H5.12497C3.85831 13 2.83331 14.025 2.83331 15.2917C2.83331 16.5583 3.85831 17.5833 5.12497 17.5833H12C12.9166 17.5833 13.6666 16.8333 13.6666 15.9167V11.9333C13.6666 11 13.1583 10.1417 12.325 9.71666ZM6.11664 15.9167H5.12497C4.78331 15.9167 4.49997 15.6333 4.49997 15.2917C4.49997 14.95 4.78331 14.6667 5.12497 14.6667H6.69997L6.11664 15.9167ZM12 15.9167H7.95831L10.4083 10.6917C10.8583 10.8583 11.25 11.0333 11.5833 11.2C11.8333 11.3333 12 11.6167 12 11.9333V15.9167Z" fill="#106B87"/>
</svg>
