<svg width="15" height="18" viewBox="0 0 15 18" fill="none" xmlns="http://www.w3.org/2000/svg">
<path d="M2.83325 10.375H7.83325V11.625H2.83325V10.375ZM2.83325 7.25H10.3333V8.5H2.83325V7.25ZM2.83325 13.5H5.95825V14.75H2.83325V13.5Z" fill="#106B87"/>
<path d="M12.8333 2.125H10.9583V1.5C10.9583 1.16848 10.8266 0.850537 10.5921 0.616116C10.3577 0.381696 10.0398 0.25 9.70825 0.25H4.70825C4.37673 0.25 4.05879 0.381696 3.82437 0.616116C3.58995 0.850537 3.45825 1.16848 3.45825 1.5V2.125H1.58325C1.25173 2.125 0.933789 2.2567 0.699368 2.49112C0.464948 2.72554 0.333252 3.04348 0.333252 3.375V16.5C0.333252 16.8315 0.464948 17.1495 0.699368 17.3839C0.933789 17.6183 1.25173 17.75 1.58325 17.75H12.8333C13.1648 17.75 13.4827 17.6183 13.7171 17.3839C13.9516 17.1495 14.0833 16.8315 14.0833 16.5V3.375C14.0833 3.04348 13.9516 2.72554 13.7171 2.49112C13.4827 2.2567 13.1648 2.125 12.8333 2.125ZM4.70825 1.5H9.70825V4H4.70825V1.5ZM12.8333 16.5H1.58325V3.375H3.45825V5.25H10.9583V3.375H12.8333V16.5Z" fill="#106B87"/>
</svg>
