<svg width="41" height="33" viewBox="0 0 41 33" fill="none" xmlns="http://www.w3.org/2000/svg">
<path d="M40.0179 5.7448C38.7429 3.54649 35.3779 3.05149 30.268 4.30148C27.9023 2.47224 25.0709 1.34314 22.0956 1.04246C19.1204 0.741776 16.1204 1.28156 13.4365 2.6005C10.7526 3.91943 8.49246 5.96465 6.91274 8.50379C5.33303 11.0429 4.4971 13.9742 4.49992 16.9647C4.50013 17.6506 4.54355 18.3358 4.62992 19.0163C0.0149706 23.7979 0.0816368 26.6312 0.983294 28.1846C1.83328 29.6579 3.6066 30.2979 5.93991 30.2979C7.55993 30.2643 9.17039 30.0406 10.7382 29.6312C13.1042 31.4587 15.9352 32.5862 18.9097 32.8857C21.8842 33.1852 24.8831 32.6447 27.566 31.3256C30.2488 30.0065 32.508 27.9616 34.0872 25.4231C35.6663 22.8846 36.5021 19.9542 36.4996 16.9647C36.4999 16.2821 36.457 15.6002 36.3712 14.923C38.4546 12.7564 39.8412 10.6981 40.3129 8.93643C40.6379 7.71644 40.5395 6.64312 40.0179 5.7448ZM20.4998 3.63149C23.5196 3.63459 26.4493 4.66136 28.8103 6.54417C31.1714 8.42698 32.8245 11.0546 33.4996 13.998C30.6563 16.6747 26.808 19.4196 23.1547 21.5196C18.5631 24.1546 14.5798 25.7979 11.4032 26.6979C9.44666 24.8731 8.08483 22.5016 7.49499 19.892C6.90516 17.2824 7.11463 14.5557 8.09615 12.0668C9.07767 9.57798 10.7858 7.44227 12.998 5.93775C15.2103 4.43323 17.8243 3.6296 20.4998 3.63149ZM3.28994 26.8462C3.0466 26.4279 3.1816 25.6396 3.65993 24.6796C4.13294 23.7801 4.70843 22.9384 5.37491 22.1713C6.03557 24.0854 7.05358 25.8568 8.37488 27.3912C5.49991 27.8746 3.7066 27.5662 3.28994 26.8462ZM20.4998 30.2979C18.2517 30.3001 16.04 29.73 14.0732 28.6412C17.6833 27.3644 21.1666 25.7542 24.478 23.8313C28.0747 21.7663 31.258 19.528 33.8229 17.318C33.7279 20.7899 32.2831 24.088 29.7954 26.5116C27.3076 28.9353 23.9729 30.2935 20.4998 30.2979ZM37.7362 8.24644C37.4529 9.29809 36.7046 10.5014 35.6313 11.7681C34.9723 9.85163 33.9542 8.07835 32.6313 6.54312C34.9996 6.15146 37.1929 6.18146 37.7146 7.08312C37.8646 7.34478 37.8729 7.73644 37.7362 8.24644Z" fill="white"/>
</svg>
