<svg width="140" height="42" viewBox="0 0 140 42" fill="none" xmlns="http://www.w3.org/2000/svg">
<path d="M77.1793 16.6982L76.1024 23.3034L58.2255 23.3034C56.5742 23.3034 55.8562 24.0213 55.8562 25.3854C55.8562 26.4767 56.8614 26.7495 57.3639 26.7495H70.0716C73.087 27.1803 74.2357 28.8316 75.0973 30.6982C75.7865 32.1916 75.3845 34.2401 75.0973 35.0777H96.2768C96.9229 35.0777 98.3588 34.288 98.2152 32.9957C98.1003 31.9618 97.4494 31.6555 97.1383 31.6316H85.5793C80.9127 31.6316 79.6921 28.8316 78.9742 27.5393C78.3998 26.5054 78.7349 24.2846 78.9742 23.3034C78.9981 22.8247 79.5198 21.3362 81.4152 19.211C83.3106 17.0859 86.4648 16.6504 87.805 16.6982H140L138.851 23.3034H126.215L123.056 41.5393H116.236L119.323 23.3034H87.5896C87.0152 23.3034 85.5793 23.8777 85.5793 25.3136C85.5793 26.4623 86.6802 26.7495 87.2306 26.7495H99.005C104.117 26.7495 105.299 30.9136 105.251 32.9957C104.677 39.4285 99.3161 41.3717 96.7075 41.5393H46.6665L47.6716 35.0777H67.128C69.4829 33.3546 68.1092 32.0623 67.128 31.6316H55.928C55.3537 31.6316 52.3383 31.488 50.5434 29.6931C48.7486 27.8982 47.9588 24.5239 50.5434 20.5034C52.6111 17.2869 56.287 16.6264 57.8665 16.6982H77.1793Z" fill="#157A8C"/>
<path d="M77.1793 16.6982L76.1024 23.3034L58.2255 23.3034C56.5742 23.3034 55.8562 24.0213 55.8562 25.3854C55.8562 26.4767 56.8614 26.7495 57.3639 26.7495H70.0716C73.087 27.1803 74.2357 28.8316 75.0973 30.6982C75.7865 32.1916 75.3845 34.2401 75.0973 35.0777H96.2768C96.9229 35.0777 98.3588 34.288 98.2152 32.9957C98.1003 31.9618 97.4494 31.6555 97.1383 31.6316H85.5793C80.9127 31.6316 79.6921 28.8316 78.9742 27.5393C78.3998 26.5054 78.7349 24.2846 78.9742 23.3034C78.9981 22.8247 79.5198 21.3362 81.4152 19.211C83.3106 17.0859 86.4648 16.6504 87.805 16.6982H140L138.851 23.3034H126.215L123.056 41.5393H116.236L119.323 23.3034H87.5896C87.0152 23.3034 85.5793 23.8777 85.5793 25.3136C85.5793 26.4623 86.6802 26.7495 87.2306 26.7495H99.005C104.117 26.7495 105.299 30.9136 105.251 32.9957C104.677 39.4285 99.3161 41.3717 96.7075 41.5393H46.6665L47.6716 35.0777H67.128C69.4829 33.3546 68.1092 32.0623 67.128 31.6316H55.928C55.3537 31.6316 52.3383 31.488 50.5434 29.6931C48.7486 27.8982 47.9588 24.5239 50.5434 20.5034C52.6111 17.2869 56.287 16.6264 57.8665 16.6982H77.1793Z" fill="url(#paint0_linear_115_82)"/>
<path d="M13.636 41.5469H6.05661L8.63463 28.3989C9.5421 25.2228 12.8626 24.1882 14.4094 24.0678H26.7839C29.5476 24.4803 31.5103 22.7616 32.1462 21.8507C34.1262 19.0458 34.9992 14.426 35.1883 12.4667V9.73402C35.0233 6.80538 33.3321 6.03885 32.5072 6.02166H1.98333C2.35456 2.02056 4.68166 0.64218 5.7988 0.453125H37.1476C38.7288 0.539059 42.4274 1.18528 44.5723 3.08271C46.7172 4.98014 46.8066 8.34188 46.5832 9.78558L42.9224 24.635C42.0149 28.0174 38.5225 29.3098 36.8898 29.5333L21.8857 29.7911C19.4108 29.5023 18.3796 31.6644 18.1733 32.7816L16.8328 38.6595C16.2965 40.8869 14.4782 41.5125 13.636 41.5469Z" fill="#157A8C"/>
<path d="M13.636 41.5469H6.05661L8.63463 28.3989C9.5421 25.2228 12.8626 24.1882 14.4094 24.0678H26.7839C29.5476 24.4803 31.5103 22.7616 32.1462 21.8507C34.1262 19.0458 34.9992 14.426 35.1883 12.4667V9.73402C35.0233 6.80538 33.3321 6.03885 32.5072 6.02166H1.98333C2.35456 2.02056 4.68166 0.64218 5.7988 0.453125H37.1476C38.7288 0.539059 42.4274 1.18528 44.5723 3.08271C46.7172 4.98014 46.8066 8.34188 46.5832 9.78558L42.9224 24.635C42.0149 28.0174 38.5225 29.3098 36.8898 29.5333L21.8857 29.7911C19.4108 29.5023 18.3796 31.6644 18.1733 32.7816L16.8328 38.6595C16.2965 40.8869 14.4782 41.5125 13.636 41.5469Z" fill="url(#paint1_linear_115_82)"/>
<path d="M19.7717 20.0977C19.7305 19.9327 19.9951 18.6196 20.1326 17.9837H2.70516C2.45767 17.9837 1.8802 17.9493 1.6224 17.9321C0.0962111 17.5197 -0.0790946 16.2822 0.0240264 15.715L0.797434 12.0027H21.4216L21.9372 9.99182C22.1847 9.62059 22.6591 9.69964 22.8653 9.78558C24.3606 11.0574 27.5573 13.7764 28.3823 14.4776C29.2073 15.1788 28.726 15.9728 28.3823 16.2822L20.6998 20.5102H20.1842C19.9779 20.5102 19.8233 20.3039 19.7717 20.0977Z" fill="#157A8C"/>
<path d="M19.7717 20.0977C19.7305 19.9327 19.9951 18.6196 20.1326 17.9837H2.70516C2.45767 17.9837 1.8802 17.9493 1.6224 17.9321C0.0962111 17.5197 -0.0790946 16.2822 0.0240264 15.715L0.797434 12.0027H21.4216L21.9372 9.99182C22.1847 9.62059 22.6591 9.69964 22.8653 9.78558C24.3606 11.0574 27.5573 13.7764 28.3823 14.4776C29.2073 15.1788 28.726 15.9728 28.3823 16.2822L20.6998 20.5102H20.1842C19.9779 20.5102 19.8233 20.3039 19.7717 20.0977Z" fill="url(#paint2_linear_115_82)"/>
<defs>
<linearGradient id="paint0_linear_115_82" x1="93.3332" y1="16.6931" x2="93.3332" y2="41.5393" gradientUnits="userSpaceOnUse">
<stop stop-color="#33817C" stop-opacity="0"/>
<stop offset="0.0001" stop-color="#0038FF" stop-opacity="0.53"/>
<stop offset="1" stop-color="#0A3676"/>
</linearGradient>
<linearGradient id="paint1_linear_115_82" x1="23.3333" y1="0.453125" x2="23.3333" y2="41.5469" gradientUnits="userSpaceOnUse">
<stop stop-color="#33817C" stop-opacity="0"/>
<stop offset="0.0001" stop-color="#0038FF" stop-opacity="0.53"/>
<stop offset="1" stop-color="#0A3676"/>
</linearGradient>
<linearGradient id="paint2_linear_115_82" x1="23.3333" y1="0.453125" x2="23.3333" y2="41.5469" gradientUnits="userSpaceOnUse">
<stop stop-color="#33817C" stop-opacity="0"/>
<stop offset="0.0001" stop-color="#0038FF" stop-opacity="0.53"/>
<stop offset="1" stop-color="#0A3676"/>
</linearGradient>
</defs>
</svg>
