<svg width="300" height="408" viewBox="0 0 221 302" fill="none" xmlns="http://www.w3.org/2000/svg">
<path d="M164.144 36.9747V34.3515L162.296 36.2096L161.73 35.6432L163.588 33.7951H160.964V33.0002H163.588L161.73 31.1521L162.296 30.5857L164.144 32.4438V29.8206H164.939V32.4438L166.787 30.5857L167.353 31.1521L165.495 33.0002H168.118V33.7951H165.495L167.353 35.6432L166.787 36.2096L164.939 34.3515V36.9747H164.144Z" fill="white"/>
<path d="M57.5491 102.553V99.93L55.701 101.788L55.1347 101.222L56.9927 99.3736H54.3696V98.5787H56.9927L55.1347 96.7306L55.701 96.1642L57.5491 98.0223V95.3991H58.344V98.0223L60.1921 96.1642L60.7585 96.7306L58.9004 98.5787H61.5236V99.3736H58.9004L60.7585 101.222L60.1921 101.788L58.344 99.93V102.553H57.5491Z" fill="white"/>
<path d="M22.7329 29.5822V26.959L20.8848 28.8171L20.3184 28.2507L22.1765 26.4026H19.5533V25.6077H22.1765L20.3184 23.7596L20.8848 23.1932L22.7329 25.0513V22.4281H23.5278V25.0513L25.3759 23.1932L25.9423 23.7596L24.0842 25.6077H26.7073V26.4026H24.0842L25.9423 28.2507L25.3759 28.8171L23.5278 26.959V29.5822H22.7329Z" fill="white"/>
<path d="M96.1808 8.12011V5.49697L94.3327 7.35503L93.7664 6.78867L95.6244 4.94055H93.0013V4.14566H95.6244L93.7664 2.29754L94.3327 1.73118L96.1808 3.58924V0.966095H96.9757V3.58924L98.8239 1.73118L99.3902 2.29754L97.5322 4.14566H100.155V4.94055H97.5322L99.3902 6.78867L98.8239 7.35503L96.9757 5.49697V8.12011H96.1808Z" fill="white"/>
<path d="M103.335 62.9676V60.3444L101.487 62.2025L100.92 61.6361L102.778 59.788H100.155V58.9931H102.778L100.92 57.145L101.487 56.5786L103.335 58.4367V55.8136H104.13V58.4367L105.978 56.5786L106.544 57.145L104.686 58.9931H107.309V59.788H104.686L106.544 61.6361L105.978 62.2025L104.13 60.3444V62.9676H103.335Z" fill="white"/>
<path d="M199.676 25.7667V23.1435L197.827 25.0016L197.261 24.4352L199.119 22.5871H196.496V21.7922H199.119L197.261 19.9441L197.827 19.3778L199.676 21.2358V18.6127H200.47V21.2358L202.319 19.3778L202.885 19.9441L201.027 21.7922H203.65V22.5871H201.027L202.885 24.4352L202.319 25.0016L200.47 23.1435V25.7667H199.676Z" fill="white"/>
<path d="M192.522 120.677V118.054L190.673 119.912L190.107 119.345L191.965 117.497H189.342V116.702H191.965L190.107 114.854L190.673 114.288L192.522 116.146V113.523H193.316V116.146L195.165 114.288L195.731 114.854L193.873 116.702H196.496V117.497H193.873L195.731 119.345L195.165 119.912L193.316 118.054V120.677H192.522Z" fill="white"/>
<path d="M8.90179 156.447V153.824L7.05367 155.682L6.48731 155.115L8.34537 153.267H5.72223V152.472H8.34537L6.48731 150.624L7.05367 150.058L8.90179 151.916V149.293H9.69668V151.916L11.5448 150.058L12.1112 150.624L10.2531 152.472H12.8762V153.267H10.2531L12.1112 155.115L11.5448 155.682L9.69668 153.824V156.447H8.90179Z" fill="white"/>
<path fill-rule="evenodd" clip-rule="evenodd" d="M214.184 301.039C208.809 294.601 201.647 288.616 192.863 283.325C171.807 270.642 142.332 262.603 109.455 262.603C76.5786 262.603 47.1041 270.642 26.0483 283.325C18.3861 287.94 11.9573 293.084 6.8727 298.595L0.5 296.749C20.7625 272.916 61.9463 256.603 109.455 256.603C158.66 256.603 201.08 274.101 220.5 299.33L214.184 301.039Z" fill="#D9D9D9"/>
<path d="M80.4025 205.315L94.057 199.729C92.8538 196.142 91.8273 192.492 90.9773 188.779C90.1237 185.063 89.5018 181.295 89.1118 177.476L81.8816 182.316C81.3886 182.669 81.0188 183.074 80.7723 183.53C80.5221 183.994 80.397 184.509 80.397 185.076L80.4025 205.315ZM99.6094 199.094H121.686C123.342 194.635 124.676 189.761 125.688 184.474C126.7 179.187 127.205 173.677 127.205 167.944C127.205 159.614 125.936 151.944 123.397 144.934C120.858 137.929 116.609 131.156 110.648 124.618C104.687 131.156 100.437 137.93 97.8984 144.94C95.3596 151.945 94.0901 159.614 94.0901 167.944C94.0901 173.673 94.5961 179.183 95.6079 184.474C96.6198 189.761 97.9536 194.635 99.6094 199.094ZM110.648 168.739C108.319 168.739 106.358 167.94 104.764 166.343C103.167 164.75 102.369 162.789 102.369 160.46C102.369 158.131 103.167 156.17 104.764 154.576C106.358 152.979 108.319 152.181 110.648 152.181C112.977 152.181 114.938 152.979 116.531 154.576C118.128 156.17 118.927 158.131 118.927 160.46C118.927 162.789 118.128 164.75 116.531 166.343C114.938 167.94 112.977 168.739 110.648 168.739ZM140.893 205.315V185.18C140.893 184.614 140.77 184.082 140.523 183.585C140.277 183.092 139.907 182.669 139.414 182.316L132.184 177.476C131.794 181.295 131.084 185.434 130.053 189.894C129.023 194.35 128.085 197.665 127.239 199.839L140.893 205.315ZM110.648 117.338C118.268 124.101 123.853 131.721 127.404 140.199C130.951 148.676 132.725 158.12 132.725 168.529C132.725 168.952 132.743 169.394 132.78 169.854C132.817 170.313 132.798 170.792 132.725 171.289L142.301 177.741C143.581 178.539 144.587 179.606 145.32 180.942C146.052 182.281 146.418 183.694 146.418 185.18V213.422L124.479 204.614H96.7118L74.8777 213.422V185.076C74.8777 183.589 75.2273 182.176 75.9264 180.837C76.6255 179.501 77.6134 178.434 78.8902 177.636L88.5709 171.178V168.529C88.5709 158.116 90.3444 148.673 93.8915 140.199C97.4385 131.725 103.024 124.105 110.648 117.338Z" fill="white"/>
<line x1="96.0013" y1="224.648" x2="96.0013" y2="250.403" stroke="white" stroke-width="6"/>
<path d="M109.694 217.017V250.403" stroke="white" stroke-width="6"/>
<line x1="128.433" y1="224.648" x2="128.433" y2="250.403" stroke="white" stroke-width="6"/>
</svg>
