<svg width="140" height="42" viewBox="0 0 1500 441" fill="none" xmlns="http://www.w3.org/2000/svg">
<path d="M826.923 174.054L815.385 244.824L623.846 244.824C606.154 244.824 598.462 252.516 598.462 267.131C598.462 278.824 609.231 281.747 614.615 281.747H750.769C783.077 286.362 795.385 304.054 804.615 324.054C812 340.054 807.692 362.003 804.615 370.978H1031.54C1038.46 370.978 1053.85 362.516 1052.31 348.67C1051.08 337.593 1044.1 334.311 1040.77 334.054H916.923C866.923 334.054 853.846 304.054 846.154 290.208C840 279.131 843.59 255.337 846.154 244.824C846.41 239.695 852 223.747 872.308 200.978C892.615 178.208 926.41 173.542 940.769 174.054H1500L1487.69 244.824H1352.31L1318.46 440.208H1245.38L1278.46 244.824H938.462C932.308 244.824 916.923 250.978 916.923 266.362C916.923 278.67 928.718 281.747 934.615 281.747H1060.77C1115.54 281.747 1128.21 326.362 1127.69 348.67C1121.54 417.593 1064.1 438.413 1036.15 440.208H500L510.769 370.978H719.231C744.462 352.516 729.744 338.67 719.231 334.054H599.231C593.077 334.054 560.769 332.516 541.538 313.285C522.308 294.054 513.846 257.901 541.538 214.824C563.692 180.362 603.077 173.285 620 174.054H826.923Z" fill="#003F69"/>
<path d="M826.923 174.054L815.385 244.824L623.846 244.824C606.154 244.824 598.462 252.516 598.462 267.131C598.462 278.824 609.231 281.747 614.615 281.747H750.769C783.077 286.362 795.385 304.054 804.615 324.054C812 340.054 807.692 362.003 804.615 370.978H1031.54C1038.46 370.978 1053.85 362.516 1052.31 348.67C1051.08 337.593 1044.1 334.311 1040.77 334.054H916.923C866.923 334.054 853.846 304.054 846.154 290.208C840 279.131 843.59 255.337 846.154 244.824C846.41 239.695 852 223.747 872.308 200.978C892.615 178.208 926.41 173.542 940.769 174.054H1500L1487.69 244.824H1352.31L1318.46 440.208H1245.38L1278.46 244.824H938.462C932.308 244.824 916.923 250.978 916.923 266.362C916.923 278.67 928.718 281.747 934.615 281.747H1060.77C1115.54 281.747 1128.21 326.362 1127.69 348.67C1121.54 417.593 1064.1 438.413 1036.15 440.208H500L510.769 370.978H719.231C744.462 352.516 729.744 338.67 719.231 334.054H599.231C593.077 334.054 560.769 332.516 541.538 313.285C522.308 294.054 513.846 257.901 541.538 214.824C563.692 180.362 603.077 173.285 620 174.054H826.923Z" fill="url(#paint0_linear_110_2)"/>
<path d="M146.1 440.29H64.8922L92.5139 299.419C102.237 265.389 137.814 254.304 154.387 253.015H286.971C316.581 257.434 337.611 239.02 344.424 229.26C365.637 199.208 374.992 149.71 377.018 128.717V99.4381C375.25 68.0599 357.13 59.847 348.291 59.6629H21.2499C25.2274 16.794 50.1606 2.02559 62.1301 0H398.01C414.951 0.920723 454.579 7.84456 477.561 28.1741C500.542 48.5037 501.499 84.5224 499.105 99.9906L459.883 259.092C450.16 295.331 412.742 309.179 395.248 311.573L234.49 314.335C207.973 311.241 196.924 334.407 194.714 346.376L180.351 409.354C174.606 433.219 155.123 439.922 146.1 440.29Z" fill="#003F69"/>
<path d="M146.1 440.29H64.8922L92.5139 299.419C102.237 265.389 137.814 254.304 154.387 253.015H286.971C316.581 257.434 337.611 239.02 344.424 229.26C365.637 199.208 374.992 149.71 377.018 128.717V99.4381C375.25 68.0599 357.13 59.847 348.291 59.6629H21.2499C25.2274 16.794 50.1606 2.02559 62.1301 0H398.01C414.951 0.920723 454.579 7.84456 477.561 28.1741C500.542 48.5037 501.499 84.5224 499.105 99.9906L459.883 259.092C450.16 295.331 412.742 309.179 395.248 311.573L234.49 314.335C207.973 311.241 196.924 334.407 194.714 346.376L180.351 409.354C174.606 433.219 155.123 439.922 146.1 440.29Z" fill="url(#paint1_linear_110_2)"/>
<path d="M211.84 210.477C211.398 208.71 214.234 194.641 215.707 187.828H28.9839C26.3322 187.828 20.145 187.459 17.3829 187.275C1.03083 182.856 -0.847443 169.597 0.257426 163.52L8.54394 123.745H229.518L235.042 102.2C237.694 98.2228 242.776 99.0698 244.986 99.9906C261.006 113.617 295.257 142.749 304.096 150.262C312.935 157.775 307.779 166.283 304.096 169.597L221.784 214.897H216.259C214.049 214.897 212.392 212.687 211.84 210.477Z" fill="#003F69"/>
<path d="M211.84 210.477C211.398 208.71 214.234 194.641 215.707 187.828H28.9839C26.3322 187.828 20.145 187.459 17.3829 187.275C1.03083 182.856 -0.847443 169.597 0.257426 163.52L8.54394 123.745H229.518L235.042 102.2C237.694 98.2228 242.776 99.0698 244.986 99.9906C261.006 113.617 295.257 142.749 304.096 150.262C312.935 157.775 307.779 166.283 304.096 169.597L221.784 214.897H216.259C214.049 214.897 212.392 212.687 211.84 210.477Z" fill="url(#paint2_linear_110_2)"/>
<defs>
<linearGradient id="paint0_linear_110_2" x1="1000" y1="174" x2="1000" y2="440.208" gradientUnits="userSpaceOnUse">
<stop stop-color="#663381" stop-opacity="0"/>
<stop offset="0.0001" stop-color="#0038FF" stop-opacity="0.53"/>
<stop offset="1" stop-color="#0A3676"/>
</linearGradient>
<linearGradient id="paint1_linear_110_2" x1="250" y1="0" x2="250" y2="440.29" gradientUnits="userSpaceOnUse">
<stop stop-color="#663381" stop-opacity="0"/>
<stop offset="0.0001" stop-color="#0038FF" stop-opacity="0.53"/>
<stop offset="1" stop-color="#0A3676"/>
</linearGradient>
<linearGradient id="paint2_linear_110_2" x1="250" y1="0" x2="250" y2="440.29" gradientUnits="userSpaceOnUse">
<stop stop-color="#663381" stop-opacity="0"/>
<stop offset="0.0001" stop-color="#0038FF" stop-opacity="0.53"/>
<stop offset="1" stop-color="#0A3676"/>
</linearGradient>
</defs>
</svg>
