<svg width="400" height="110" viewBox="0 0 400 110" fill="none" xmlns="http://www.w3.org/2000/svg">
<path d="M220.513 43.5894L217.436 61.1093L166.359 61.1093C161.641 61.1093 159.59 63.0137 159.59 66.6319C159.59 69.5265 162.462 70.2502 163.898 70.2502H200.206C208.821 71.3928 212.103 75.7728 214.564 80.724C216.534 84.6851 215.385 90.1188 214.564 92.3405H275.077C276.923 92.3405 281.026 90.2457 280.616 86.8179C280.288 84.0757 278.428 83.2632 277.539 83.1997H244.513C231.18 83.1997 227.693 75.7728 225.641 72.3449C224 69.6027 224.958 63.7119 225.641 61.1093C225.71 59.8398 227.2 55.8914 232.616 50.2546C238.031 44.6178 247.043 43.4625 250.872 43.5894H400L396.718 61.1093H360.616L351.59 109.48H332.103L340.923 61.1093H250.257C248.616 61.1093 244.513 62.6328 244.513 66.4415C244.513 69.4884 247.658 70.2502 249.231 70.2502H282.872C297.477 70.2502 300.855 81.2953 300.718 86.8179C299.077 103.881 283.761 109.035 276.308 109.48H133.334L136.206 92.3405H191.795C198.523 87.7701 194.599 84.3423 191.795 83.1997H159.795C158.154 83.1997 149.539 82.8188 144.411 78.058C139.282 73.2971 137.026 64.3467 144.411 53.6824C150.318 45.151 160.821 43.399 165.334 43.5894H220.513Z" fill="#157A8C"/>
<path d="M220.513 43.5894L217.436 61.1093L166.359 61.1093C161.641 61.1093 159.59 63.0137 159.59 66.6319C159.59 69.5265 162.462 70.2502 163.898 70.2502H200.206C208.821 71.3928 212.103 75.7728 214.564 80.724C216.534 84.6851 215.385 90.1188 214.564 92.3405H275.077C276.923 92.3405 281.026 90.2457 280.616 86.8179C280.288 84.0757 278.428 83.2632 277.539 83.1997H244.513C231.18 83.1997 227.693 75.7728 225.641 72.3449C224 69.6027 224.958 63.7119 225.641 61.1093C225.71 59.8398 227.2 55.8914 232.616 50.2546C238.031 44.6178 247.043 43.4625 250.872 43.5894H400L396.718 61.1093H360.616L351.59 109.48H332.103L340.923 61.1093H250.257C248.616 61.1093 244.513 62.6328 244.513 66.4415C244.513 69.4884 247.658 70.2502 249.231 70.2502H282.872C297.477 70.2502 300.855 81.2953 300.718 86.8179C299.077 103.881 283.761 109.035 276.308 109.48H133.334L136.206 92.3405H191.795C198.523 87.7701 194.599 84.3423 191.795 83.1997H159.795C158.154 83.1997 149.539 82.8188 144.411 78.058C139.282 73.2971 137.026 64.3467 144.411 53.6824C150.318 45.151 160.821 43.399 165.334 43.5894H220.513Z" fill="url(#paint0_linear_150_311)"/>
<path d="M38.96 109.5H17.3046L24.6704 74.6255C27.2631 66.2009 36.7503 63.4565 41.1697 63.1374H76.5255C84.4216 64.2315 90.0294 59.6727 91.8463 57.2566C97.5033 49.8167 99.9978 37.5627 100.538 32.3658V25.1173C100.067 17.3492 95.2346 15.316 92.8775 15.2704H5.66664C6.72732 4.65759 13.3762 1.00146 16.568 0.5H106.136C110.654 0.727938 121.221 2.44203 127.349 7.47491C133.478 12.5078 133.733 21.4247 133.095 25.2541L122.635 64.6418C120.043 73.6134 110.064 77.0416 105.399 77.6343L62.5305 78.3181C55.4594 77.5522 52.513 83.2871 51.9238 86.2503L48.0936 101.841C46.5615 107.749 41.3661 109.409 38.96 109.5Z" fill="#157A8C"/>
<path d="M38.96 109.5H17.3046L24.6704 74.6255C27.2631 66.2009 36.7503 63.4565 41.1697 63.1374H76.5255C84.4216 64.2315 90.0294 59.6727 91.8463 57.2566C97.5033 49.8167 99.9978 37.5627 100.538 32.3658V25.1173C100.067 17.3492 95.2346 15.316 92.8775 15.2704H5.66664C6.72732 4.65759 13.3762 1.00146 16.568 0.5H106.136C110.654 0.727938 121.221 2.44203 127.349 7.47491C133.478 12.5078 133.733 21.4247 133.095 25.2541L122.635 64.6418C120.043 73.6134 110.064 77.0416 105.399 77.6343L62.5305 78.3181C55.4594 77.5522 52.513 83.2871 51.9238 86.2503L48.0936 101.841C46.5615 107.749 41.3661 109.409 38.96 109.5Z" fill="url(#paint1_linear_150_311)"/>
<path d="M56.4906 52.6067C56.3727 52.169 57.1289 48.6861 57.5218 46.9994H7.72904C7.02192 46.9994 5.372 46.9082 4.63543 46.8626C0.274889 45.7685 -0.225985 42.4862 0.0686469 40.9818L2.27838 31.1349H61.2047L62.6778 25.8011C63.3849 24.8164 64.7402 25.0261 65.3295 25.2541C69.6017 28.6276 78.7352 35.8395 81.0923 37.6995C83.4493 39.5595 82.0744 41.6656 81.0923 42.4862L59.1422 53.7008H57.6691C57.0798 53.7008 56.6379 53.1537 56.4906 52.6067Z" fill="#157A8C"/>
<path d="M56.4906 52.6067C56.3727 52.169 57.1289 48.6861 57.5218 46.9994H7.72904C7.02192 46.9994 5.372 46.9082 4.63543 46.8626C0.274889 45.7685 -0.225985 42.4862 0.0686469 40.9818L2.27838 31.1349H61.2047L62.6778 25.8011C63.3849 24.8164 64.7402 25.0261 65.3295 25.2541C69.6017 28.6276 78.7352 35.8395 81.0923 37.6995C83.4493 39.5595 82.0744 41.6656 81.0923 42.4862L59.1422 53.7008H57.6691C57.0798 53.7008 56.6379 53.1537 56.4906 52.6067Z" fill="url(#paint2_linear_150_311)"/>
<defs>
<linearGradient id="paint0_linear_150_311" x1="266.667" y1="43.5759" x2="266.667" y2="109.48" gradientUnits="userSpaceOnUse">
<stop stop-color="#3094A6"/>
<stop offset="0.47" stop-color="#276DA1"/>
<stop offset="1" stop-color="#21539E"/>
</linearGradient>
<linearGradient id="paint1_linear_150_311" x1="66.6666" y1="0.5" x2="66.6666" y2="109.5" gradientUnits="userSpaceOnUse">
<stop stop-color="#3094A6"/>
<stop offset="0.47" stop-color="#276DA1"/>
<stop offset="1" stop-color="#21539E"/>
</linearGradient>
<linearGradient id="paint2_linear_150_311" x1="66.6666" y1="0.5" x2="66.6666" y2="109.5" gradientUnits="userSpaceOnUse">
<stop stop-color="#3094A6"/>
<stop offset="0.47" stop-color="#276DA1"/>
<stop offset="1" stop-color="#21539E"/>
</linearGradient>
</defs>
</svg>
